<?xml version="1.0" encoding="UTF-8" standalone="no"?>
<!-- Created with Inkscape (http://www.inkscape.org/) -->

<svg
   version="1.1"
   id="svg1"
   width="1080"
   height="1080"
   viewBox="0 0 1080 1080"
   sodipodi:docname="logo_V.svg"
   inkscape:version="1.4.2 (2aeb623e1d, 2025-05-12)"
   xmlns:inkscape="http://www.inkscape.org/namespaces/inkscape"
   xmlns:sodipodi="http://sodipodi.sourceforge.net/DTD/sodipodi-0.dtd"
   xmlns="http://www.w3.org/2000/svg"
   xmlns:svg="http://www.w3.org/2000/svg">
  <defs
     id="defs1" />
  <sodipodi:namedview
     id="namedview1"
     pagecolor="#ffffff"
     bordercolor="#000000"
     borderopacity="0.25"
     inkscape:showpageshadow="2"
     inkscape:pageopacity="0.0"
     inkscape:pagecheckerboard="0"
     inkscape:deskcolor="#d1d1d1"
     inkscape:zoom="0.32670952"
     inkscape:cx="477.48838"
     inkscape:cy="570.84348"
     inkscape:window-width="1294"
     inkscape:window-height="704"
     inkscape:window-x="332"
     inkscape:window-y="1107"
     inkscape:window-maximized="1"
     inkscape:current-layer="g1" />
  <g
     inkscape:groupmode="layer"
     inkscape:label="Image"
     id="g1">
    <path
       style="fill:#832cf1;stroke:#832cf1;stroke-opacity:1;fill-opacity:1"
       d="m 295.848,907.24135 c -9.47695,-0.5657 -11.18388,-0.9647 -15.47356,-3.6168 -7.05637,-4.3626 -10.55545,-10.54917 -11.13617,-19.68936 -0.62007,-9.7595 0.72038,-13.8194 7.67268,-23.23869 41.7624,-56.58154 58.80017,-83.6429 64.90084,-103.08297 5.56768,-17.74167 8.02476,-39.42143 6.28271,-55.43466 -0.93324,-8.57846 -2.64817,-17.33353 -3.68416,-18.80837 -0.12595,-0.17929 -4.45321,1.02714 -9.61614,2.68098 -41.61931,13.33185 -72.19469,14.7969 -88.63523,4.24703 -9.45163,-6.06509 -15.94185,-14.90372 -18.79962,-25.60201 -1.90121,-7.11736 -1.84627,-65.3896 0.0667,-70.75 1.1177,-3.13192 1.1177,-4.36808 0,-7.5 -0.82879,-2.32239 -1.35497,-8.41351 -1.38216,-16 l -0.0439,-12.25 h -5.8185 c -11.84209,0 -21.77674,-5.04045 -26.78772,-13.59104 -2.1511,-3.67058 -2.83478,-6.3136 -3.18123,-12.29821 -0.2427,-4.19256 0.0184,-9.19512 0.58027,-11.1168 0.56185,-1.92167 11.73147,-25.31895 24.82136,-51.99395 l 23.79982,-48.5 0.74144,-24 c 1.39306,-45.09254 8.95804,-78.21903 25.48065,-111.57787 16.7177,-33.75274 37.29206,-57.92125 64.86391,-76.19502 20.55463,-13.62298 43.82673,-23.82492 71.27696,-31.24615 32.86986,-8.88643 59.14101,-11.84958 105.72304,-11.92459 33.82595,-0.0545 35.3019,0.0238 44,2.33475 4.95,1.31512 9.70941,2.75166 10.57646,3.19231 0.92118,0.46816 4.87003,-0.0432 9.5,-1.23025 22.37053,-5.73534 48.61578,-7.606 84.06789,-5.99203 36.02514,1.64007 60.73092,5.41018 82.94032,12.65673 16.14155,5.26672 23.74439,9.59996 33.41533,19.04512 l 8.5,8.30155 10.27652,2.09207 c 16.9813,3.457 27.66669,9.37232 39.23424,21.71967 8.00228,8.54172 13.26057,17.36471 16.57209,27.80659 6.419,20.24044 5.27102,40.43298 -3.2195,56.62933 -1.90645,3.63672 -4.75169,7.84372 -6.32275,9.34889 l -2.85646,2.73667 1.83518,3.15111 c 3.07691,5.28325 15.73218,35.15937 18.60161,43.91403 2.30089,7.02005 2.76638,10.42889 3.15048,23.07148 0.39613,13.03864 0.17963,15.8858 -1.78853,23.51991 l -2.23923,8.68551 5.08606,12.9801 c 2.79734,7.13905 7.60033,19.28009 10.67332,26.98009 3.073,7.7 9.94526,25.025 15.2717,38.5 l 9.68443,24.5 0.0204,10 c 0.0184,8.99132 -0.26689,10.58511 -2.82797,15.80077 -5.84482,11.90303 -20.56971,22.24672 -33.31479,23.4024 l -5.9469,0.53925 0.42037,5.8116 c 0.62415,8.62876 -2.15358,19.61986 -6.75938,26.74592 l -3.84626,5.95091 1.38205,5.87458 c 0.76013,3.23101 1.38909,7.71509 1.39768,9.96461 0.0313,8.2055 -5.01408,23.53848 -11.01748,33.48201 l -2.15662,3.57206 5.38339,7.92794 c 11.84681,17.4464 14.65334,39.6923 7.79338,61.77416 -2.45179,7.8922 -8.81168,15.26872 -14.07135,16.32065 -1.69818,0.33964 -3.22777,1.11603 -3.3991,1.72533 -0.17133,0.6093 -1.05932,5.14935 -1.97331,10.08901 -2.13026,11.51294 -6.1914,19.94004 -13.34257,27.68663 -11.82663,12.81134 -28.04316,20.54148 -41.12845,19.60523 -8.25865,-0.59091 -13.1192,-3.22422 -16.94355,-9.17958 l -2.6287,-4.09348 -11.73373,0.28159 c -12.33123,0.29594 -19.17558,-0.85128 -29.55221,-4.9534 -2.90726,-1.14931 -5.49446,-1.88112 -5.74933,-1.62626 -0.86461,0.86462 -3.453,20.26777 -3.44147,25.79807 0.0151,7.22183 2.28443,17.70347 5.0109,23.14398 1.20063,2.39581 5.12953,9.46254 8.73087,15.70383 6.05934,10.50112 6.5818,11.88146 7.00225,18.5 0.64089,10.08838 -0.92053,14.90068 -6.71474,20.69484 -8.8589,8.8589 -17.86895,9.8698 -39.85456,4.4714 -30.23114,-7.4231 -54.80057,-16.98578 -88.69798,-34.52219 -37.32527,-19.30977 -58.87435,-26.27785 -89.76955,-29.02773 -9.59223,-0.85377 -15.4395,-0.84944 -23.5,0.0174 -16.92585,1.82021 -21.72873,3.04127 -43.73045,11.11776 -9.57996,3.51666 -18.38617,2.01455 -24.59618,-4.19546 -2.18148,-2.18148 -4.23538,-5.31162 -4.56423,-6.95588 -0.32885,-1.64426 -0.92358,-3.19083 -1.32161,-3.43683 -0.73838,-0.45634 -10.15867,16.3799 -25.14651,44.94265 -9.02274,17.19488 -13.49544,22.79268 -19.55654,24.47568 -5.39636,1.4985 -24.01919,1.2667 -28.56493,-0.3555 -3.13192,-1.1177 -4.36808,-1.1177 -7.5,0 -3.9967,1.4263 -5.7727,1.4636 -22.402,0.471 z m 31.86046,-45.04485 c 41.47531,-65.4022 55.81475,-94.68947 63.64971,-130 C 394.86449,716.39429 396,706.09864 396,690.10922 c 0,-11.88417 -1.13128,-23.37733 -2.42875,-24.67481 -0.22805,-0.22804 -4.38737,1.35033 -9.24294,3.5075 -4.85557,2.15716 -11.44011,4.95905 -14.63232,6.22642 -4.47502,1.77667 -5.66173,2.67339 -5.18265,3.91623 5.39812,14.0038 5.63019,47.46746 0.49402,71.2356 -4.28783,19.84239 -13.38907,39.55811 -28.67582,62.11949 -13.88117,20.48691 -33.23883,47.88478 -40.80746,57.75685 -6.42956,8.38634 -7.64503,11.67238 -5.54831,15 1.14993,1.82502 19.81429,3.1169 21.6771,1.50042 0.63408,-0.55023 7.8591,-11.57542 16.05559,-24.50042 z m 29.21708,8.24456 c 17.56607,-33.06999 33.3678,-61.70867 39.03414,-70.74456 25.55659,-40.7541 38.76779,-72.8077 45.13147,-109.5 2.24954,-12.9706 3.43073,-38.37931 2.21531,-47.6541 l -0.80646,-6.15409 -7.5,5.5088 c -4.125,3.02984 -10.67643,7.25512 -14.55873,9.38951 l -7.05873,3.88071 1.93829,8.76458 c 2.73615,12.37233 2.8997,44.13793 0.30771,59.76459 -3.73533,22.51967 -10.40732,41.30019 -22.38147,63 -6.87831,12.46503 -26.13173,44.20468 -35.97384,59.30361 C 347.38974,861.16251 333,885.34933 333,886.79946 c 0,1.06809 1.70711,1.39576 7.25,1.3916 l 7.25,-0.005 z m 343.82118,15.08714 c 2.08216,-2.84751 1.5352,-4.48057 -5.77307,-17.2369 C 682.98654,847.36823 681,840.6656 681,821.14383 c 0,-12.78248 1.79109,-25.1449 4.98648,-34.4176 l 2.05737,-5.97027 -3.19875,-6.00145 c -1.7593,-3.3008 -3.96589,-8.48089 -4.90351,-11.5113 l -1.70478,-5.50985 -6.36006,-1.28725 c -12.75751,-2.58209 -22.89742,-9.08514 -31.96083,-20.49752 -5.09124,-6.41076 -7.96452,-14.52882 -8.75709,-24.74198 l -0.65883,-8.48988 -4.66914,-0.66565 c -20.36429,-2.9032 -38.85195,-14.96187 -46.33586,-30.22279 -4.06546,-8.29011 -5.66209,-15.57671 -5.36549,-24.48665 l 0.21155,-6.35485 -7.9201,-5.66305 c -18.7965,-13.43993 -28.56551,-34.8825 -25.40154,-55.75533 1.92548,-12.70251 7.52216,-25.98584 11.94621,-28.35352 2.80042,-1.49874 8.27379,-1.23942 10.77194,0.51035 3.54089,2.48014 3.77929,7.1139 0.71049,13.80994 -5.81736,12.69332 -6.83689,22.60173 -3.38115,32.85994 3.88756,11.54003 12.09991,20.21417 24.43309,25.80695 8.83065,4.00448 9.97902,5.64611 8.90328,12.7275 -0.48184,3.17181 -0.88,9.14193 -0.88482,13.26693 -0.0159,13.58569 5.91038,21.96521 20.4296,28.88691 7.37977,3.51813 7.8903,3.61175 22.39308,4.10665 14.09126,0.48085 14.9376,0.62573 16.75,2.86722 2.53699,3.13763 2.40877,6.04049 -0.65946,14.92994 -1.96232,5.68537 -2.40543,8.41652 -1.87797,11.57518 1.66287,9.95817 7.83396,17.49985 18.31969,22.38852 4.86203,2.26677 6.26265,2.45867 14.71738,2.01644 7.86152,-0.41121 9.82085,-0.19875 12.34976,1.33917 3.71594,2.2598 4.62731,5.57775 3.14695,11.45681 -2.87657,11.42388 7.04354,24.88671 22.58224,30.64694 5.95348,2.20697 8.10306,2.29459 36.06232,1.47002 5.74836,-0.16953 6.47204,0.0563 9.32415,2.90958 2.12961,2.13049 3.26965,4.41714 3.66251,7.34609 0.55559,4.14223 0.65108,4.2366 3.67585,3.63266 5.55277,-1.10869 15.35896,-6.30375 20.03512,-10.61407 5.61438,-5.17517 10.25746,-14.3253 11.64683,-22.9525 1.88883,-11.72856 -1.75045,-24.59399 -10.07637,-35.6216 -2.15094,-2.8489 -4.19252,-6.30228 -4.53685,-7.67418 -0.93895,-3.7411 1.88002,-8.33795 5.93356,-9.67574 7.38505,-2.43728 13.29436,2.95125 21.63275,19.72629 4.73282,9.52142 4.85743,9.667 5.9085,6.90248 2.51079,-6.60388 3.27159,-12.22471 2.89717,-21.40456 -0.34433,-8.442 -0.83633,-10.69279 -3.64759,-16.68667 -3.70816,-7.90614 -10.00745,-15.69814 -16.2265,-20.07158 -10.92321,-7.68157 -12.61113,-12.00389 -6.91291,-17.70212 2.60256,-2.60256 3.58953,-2.97126 6.75,-2.52161 2.03595,0.28967 4.46417,0.83453 5.39604,1.21082 3.63932,1.46953 12.15388,-20.75463 10.98992,-28.68518 -0.36439,-2.48275 -0.78393,-2.86734 -2.56002,-2.34673 -7.96946,2.33604 -16.57434,3.51245 -25.80163,3.52746 -10.46577,0.017 -10.72029,-0.0371 -12.84032,-2.73233 -2.87968,-3.66091 -2.11659,-8.78987 1.8385,-12.35709 2.69625,-2.43184 3.70434,-2.64031 15.02193,-3.10642 11.13058,-0.45841 12.67418,-0.7667 18.70532,-3.73582 7.69423,-3.78786 11.78278,-8.70334 13.3613,-16.06369 1.70175,-7.93499 -1.38484,-20.98729 -4.96305,-20.98729 -0.9961,0 -6.90401,1.31604 -13.12868,2.92453 -25.00164,6.46056 -40.57707,13.85649 -49.68472,23.5926 -8.68533,9.28464 -12.25093,17.14981 -12.89491,28.44415 l -0.51402,9.01518 5.06213,7.49304 c 6.0173,8.9069 7.67213,15.07085 7.02629,26.17171 -0.41286,7.09654 -0.9594,8.81522 -5.63478,17.71963 -3.0984,5.901 -5.16875,11.12144 -5.15561,13 0.031,4.43466 3.11582,10.55118 7.35593,14.58533 4.57714,4.3548 5.03848,9.72837 1.16756,13.59928 -4.72267,4.72268 -12.19127,2.90963 -18.98327,-4.60831 C 735.08294,716.9619 733.5,712.25183 733.5,700.14448 v -10.55203 l 5,-8.44797 c 4.64307,-7.84491 4.99746,-8.91199 4.96445,-14.94798 -0.0333,-6.08875 -0.33278,-6.92953 -4.73339,-13.28894 -6.21338,-8.97909 -8.17303,-15.82375 -7.4001,-25.84698 0.32725,-4.24371 1.46509,-10.29312 2.52853,-13.44313 l 1.93352,-5.7273 -2.84158,-4.61816 c -1.56287,-2.53999 -4.13123,-5.57164 -5.70748,-6.73701 -3.47633,-2.57016 -13.42963,-7.65253 -20.25678,-10.34354 l -5.00926,-1.97446 -4.13684,4.23976 c -8.72404,8.94108 -11.1498,20.24003 -6.49245,30.24122 1.28099,2.75081 4.89587,7.92581 8.03306,11.5 12.59908,14.35409 16.42308,31.56336 10.28036,46.26496 -2.21483,5.30084 -11.09018,18.81152 -14.50959,22.08752 -3.97129,3.80474 -9.33536,3.9177 -12.97972,0.27333 -3.84908,-3.84908 -3.42832,-8.05833 1.57443,-15.75058 7.17136,-11.0267 9.58924,-17.32838 8.96591,-23.36779 -0.68965,-6.6821 -3.67549,-12.51881 -9.68668,-18.93553 -8.56619,-9.14407 -12.4574,-17.42482 -13.60916,-28.96123 -1.00778,-10.09426 3.04294,-23.55267 9.86693,-32.78262 1.14057,-1.54271 1.88074,-2.93999 1.64481,-3.10506 -0.23594,-0.16508 -3.12897,-1.35277 -6.42897,-2.63932 -3.3,-1.28654 -9.24213,-4.08247 -13.20474,-6.21317 l -7.20474,-3.874 -4.06086,6.83544 C 645.65421,577.39488 641,593.17409 641,600.64322 c 0,5.78512 2.34279,13.12758 6.05705,18.98318 4.62738,7.29515 4.9006,10.7663 1.14319,14.52371 -3.22211,3.22211 -6.41551,3.81669 -10.50106,1.95519 -3.07354,-1.4004 -10.32663,-12.41815 -12.79126,-19.43046 -4.96755,-14.13357 -0.0779,-41.77334 10.40766,-58.83189 l 2.98339,-4.85354 -4.57385,-3.90961 c -6.75736,-5.77602 -14.25236,-15.67352 -18.18833,-24.01856 -6.68656,-14.17685 -6.85234,-15.44926 -7.47359,-57.36222 l -0.5632,-37.99748 -4,0.49748 c -2.2,0.27361 -11.72677,0.49748 -21.1706,0.49748 -16.79638,0 -17.22682,-0.0528 -19.75,-2.42431 -3.46318,-3.25496 -3.5324,-8.86003 -0.15769,-12.76993 2.3305,-2.70009 2.73536,-2.7969 10.75,-2.57059 14.40983,0.40691 33.37231,-1.56274 41.12628,-4.27181 20.23032,-7.06805 32.82113,-23.38641 35.20262,-45.62447 l 0.70975,-6.62755 -4.35518,-0.66176 C 629.71135,353.29306 626,351.25144 626,344.82374 c 0,-8.46271 2.67348,-9.70896 19.15704,-8.93012 15.00126,0.70881 19.24306,-0.38928 29.59999,-7.66267 11.28814,-7.92735 17.94208,-16.67058 23.71793,-31.16518 3.26087,-8.18324 6.1218,-11.06927 10.97298,-11.06927 4.26597,0 6.37068,1.52491 8.2239,5.95842 1.68326,4.02688 1.20598,6.08198 -4.33047,18.64666 -2.4005,5.4478 -4.11686,10.15276 -3.81414,10.45548 0.30272,0.30272 4.72646,0.73305 9.83053,0.95628 8.27583,0.36196 10.20114,0.0884 17.79047,-2.5275 4.69625,-1.61873 11.74867,-5.10608 15.73602,-7.7813 10.87577,-7.29685 16.34115,-13.91307 23.27654,-28.17786 3.29534,-6.7779 6.95739,-12.99997 8.13788,-13.82682 3.30994,-2.31838 8.0105,-1.87294 11.17398,1.05887 2.48615,2.30409 2.72029,3.08488 2.32399,7.75 -0.47913,5.64005 -6.41708,19.36885 -11.69583,27.04125 -1.70545,2.47878 -3.10081,4.75415 -3.10081,5.05637 0,1.08664 8.12291,4.66302 14.02547,6.17519 5.43833,1.39323 6.54275,1.39169 11.38464,-0.0159 18.53891,-5.38941 26.85733,-30.22551 18.5174,-55.28699 -4.08857,-12.28617 -15.26616,-25.38749 -26.17775,-30.68313 -14.77145,-7.16891 -29.42681,-7.36499 -49.53253,-0.66272 -24.18829,8.0632 -80.79066,31.66774 -124.71723,52.01005 -46.63526,21.59671 -121.43759,58.95146 -143.75,71.78582 l -7.75,4.45789 -0.1875,5.40496 c -0.4119,11.87375 -1.11565,10.55963 6.6875,12.48776 12.44689,3.0756 21.86588,7.33747 30.41811,13.76349 l 5.37514,4.0388 5.07575,-2.57208 c 3.58118,-1.81472 6.60352,-2.55835 10.2642,-2.52546 6.23467,0.056 8.84622,1.30508 10.85645,5.19243 4.05126,7.83428 -0.27471,15.94023 -9.05058,16.95889 -4.20625,0.48824 -5.09805,1.01366 -6.86514,4.04474 -1.86412,3.19753 -2.03268,5.20958 -2.05242,24.5 -0.0308,30.03974 2.1749,37.85681 14.3117,50.72246 7.04145,7.46431 12.77415,10.90705 24.66679,14.81352 9.68422,3.18105 13.5,7.05147 13.5,13.69332 0,4.11124 -0.47132,5.36446 -2.88842,7.68019 -4.42142,4.23599 -8.87534,4.29931 -20.33224,0.28908 -11.61963,-4.06719 -19.12974,-8.37981 -26.7348,-15.35223 l -5.63914,-5.17005 -3.78939,3.18139 -3.78939,3.18138 1.82111,13.98867 c 2.57822,19.80424 2.61812,80.01747 0.0654,98.75793 -4.686,34.40223 -14.10516,70.45367 -25.40348,97.23073 -14.25224,33.77789 -27.0008,53.98453 -54.57367,86.5 -9.28056,10.94417 -18.33718,23.73217 -17.44163,24.62772 0.28586,0.28586 1.79907,-0.13494 3.36268,-0.93512 5.40717,-2.76711 21.77238,-7.71472 32.78606,-9.91202 14.44484,-2.88185 41.35455,-3.08076 58.4607,-0.43212 27.28921,4.22534 44.94918,10.51804 81.59617,29.07484 34.41649,17.42736 54.45254,25.40572 82,32.65245 15.70716,4.13198 20.93711,4.41454 23.24672,1.25595 z M 431.86558,786.76915 c 13.28256,-16.37103 23.22052,-31.78621 32.74222,-50.78779 19.12739,-38.17073 31.07487,-84.34501 34.48712,-133.28486 1.64649,-23.61459 -0.3881,-75.95975 -3.0635,-78.81669 -0.42064,-0.44918 -3.18729,-0.13019 -6.14811,0.70887 -2.96082,0.83905 -8.08331,1.8148 -11.38331,2.16833 l -6,0.64277 -0.14126,18.64836 c -0.19731,26.04756 -3.15761,43.59183 -9.94503,58.93938 l -2.37897,5.37928 2.16161,12.66485 c 1.76561,10.3447 2.16765,16.78676 2.19459,35.16485 0.0369,25.19594 -1.02624,33.66542 -6.90414,55 -7.20908,26.1663 -12.3081,39.48796 -24.62671,64.33955 -8.97631,18.10883 -9.0958,19.21812 -0.99451,9.2331 z M 292,675.64886 c 20.7416,-3.36144 39.96267,-9.44636 68.5,-21.6854 24.1608,-10.36204 48.47943,-22.32029 56.58486,-27.82459 3.07812,-2.09031 8.60476,-7.04968 12.28143,-11.02082 11.31771,-12.22417 17.37584,-27.38636 19.59922,-49.05261 1.18456,-11.54322 1.36614,-38.83333 0.26918,-40.45514 -0.40408,-0.59741 -2.26993,-1.61186 -4.14633,-2.25433 -15.96424,-5.46608 -33.15509,-21.4224 -41.65052,-38.65947 -6.56214,-13.31446 -7.77569,-19.30524 -7.19005,-35.49424 0.42011,-11.61339 0.90857,-14.72895 3.48611,-22.2356 3.99374,-11.63111 8.33928,-18.71224 16.7661,-27.32063 8.25556,-8.43345 15.25538,-13.24983 26.08701,-17.94977 l 7.91299,-3.43351 0.24702,-4.28312 c 1.01293,-17.5635 5.63465,-46.41963 10.81954,-67.55279 12.45357,-50.75967 34.78446,-91.73894 63.06586,-115.73177 l 6.48139,-5.49857 -19.3069,0.01 c -41.6418,0.0213 -80.75343,4.85618 -109.31264,13.51287 -38.13797,11.56013 -62.59514,25.19702 -84.00209,46.83809 -14.05563,14.20935 -22.89737,26.33212 -31.82821,43.63915 -17.94731,34.78002 -25.07388,65.08736 -26.58899,113.07574 l -0.77592,24.57574 -24.28706,49.42426 c -13.35788,27.18334 -24.49342,50.83553 -24.74565,52.56041 -1.06778,7.30233 3.69189,9.52398 19.70679,9.19844 9.78083,-0.19882 10.19877,-0.11732 12.81867,2.49963 2.70314,2.70011 2.70912,2.73916 3.20819,20.93547 l 0.5,18.23031 18.5,0.24785 c 12.12631,0.16246 19.30457,0.66706 20.83531,1.46464 6.80463,3.54547 6.60796,15.44199 -0.30737,18.59282 -1.73116,0.78866 -8.91063,1.19458 -21.13054,1.19458 h -18.50849 l 0.30554,29.25 c 0.29249,28.00015 0.40045,29.42747 2.52653,33.40327 2.83919,5.30935 8.5471,10.03035 14.27902,11.81015 6.02424,1.87056 17.41635,1.86622 29,-0.0111 z m 0.88805,-204.952 c -4.60523,-2.5029 -5.01784,-5.22303 -4.69056,-30.92249 L 288.5,416.02 l 2.80576,-2.41175 c 1.92477,-1.65447 4.02673,-2.41175 6.69424,-2.41175 2.66751,0 4.76947,0.75728 6.69424,2.41175 L 307.5,416.02 l 0.30251,23.75437 c 0.33006,25.91737 -0.0744,28.47715 -4.8937,30.96929 -3.49395,1.80679 -6.63723,1.79211 -10.02076,-0.0468 z m 460.69232,112.58618 c 3.01115,-3.25241 7.62682,-7.2944 10.25706,-8.98222 3.8607,-2.4774 18.86211,-9.26524 27.34881,-12.37477 1.55926,-0.57132 1.54043,-0.91962 -0.25,-4.62539 -2.69083,-5.56936 -2.5243,-13.30515 0.42201,-19.60416 2.40593,-5.14372 9.88962,-12.88334 13.95004,-14.42711 5.9108,-2.24728 11.69171,2.24442 11.69171,9.08431 0,3.10604 -0.77095,4.73731 -3.8353,8.11514 -5.04137,5.55712 -5.5944,7.29796 -3.10819,9.78417 1.8957,1.8957 3.10432,1.99485 21.05559,1.72731 l 19.04444,-0.28382 2.31602,2.68287 c 1.27381,1.47557 2.49666,3.2248 2.71745,3.88716 0.6214,1.86421 9.64574,-2.52154 14.08184,-6.84366 4.20361,-4.0956 6.21341,-9.74051 5.16595,-14.50956 -0.68505,-3.11903 -10.72084,-29.22368 -20.26669,-52.71681 -14.91694,-36.71183 -21.17017,-53.51993 -21.15869,-56.87258 0.007,-1.99508 1.13184,-7.67426 2.5,-12.62039 3.15282,-11.39792 3.28758,-22.06198 0.41787,-33.06869 -1.91572,-7.3477 -15.89705,-41.41992 -18.11018,-44.13414 -0.68075,-0.83489 -1.72584,-0.91034 -3.46267,-0.25 -4.32741,1.64528 -15.72535,1.07472 -23.0021,-1.15143 -3.77044,-1.15347 -10.61987,-3.92613 -15.22097,-6.16146 -8.15333,-3.96109 -8.43247,-4.02131 -11,-2.3731 -18.87157,12.11454 -39.90426,16.88581 -58.14397,13.18998 -4.64161,-0.94052 -9.1049,-2.08251 -9.91842,-2.53778 -1.02289,-0.57244 -2.72724,0.24429 -5.52555,2.64785 -2.22554,1.91159 -8.14605,5.51467 -13.1567,8.00684 l -9.11027,4.53122 -0.56401,9.64684 c -0.6254,10.69702 -3.72441,21.57595 -9.01076,31.63191 -4.24736,8.07955 -19.36241,23.18977 -26.45469,26.44623 l -5.25,2.41057 v 38.43472 c 0,42.85408 0.27359,45.19784 6.70896,57.47324 9.15963,17.47189 20.79515,24.96116 70.29104,45.2432 24.10952,9.87941 30.5372,13.34971 37.5,20.24625 2.2,2.17906 4.36125,4.02915 4.80277,4.11132 0.44153,0.0822 3.26644,-2.51166 6.2776,-5.76406 z m 13.84075,-113.50546 c -4.34975,-1.894 -5.75784,-5.92334 -4.89279,-14.00104 0.44761,-4.17974 0.34081,-6.58004 -0.29277,-6.58004 -0.54859,0 -3.98629,1.125 -7.63933,2.5 -8.81956,3.31967 -12.0167,3.23337 -15.67315,-0.42308 -4.26131,-4.2613 -3.52484,-11.41072 1.43738,-13.95359 5.24671,-2.68865 32.39067,-12.26455 36.27407,-12.79682 3.94741,-0.54106 4.59358,-0.2984 7.83388,2.9419 4.72884,4.72884 4.49038,9.51512 -0.68278,13.70409 -1.62556,1.3163 -1.96026,3.08992 -2.17796,11.54141 -0.30006,11.64846 -1.8612,15.68162 -6.72651,17.37767 -3.84759,1.34128 -3.64746,1.34961 -7.46004,-0.3105 z M 715.58889,424.11977 C 714.165,422.42758 713,419.92299 713,418.55403 c 0,-6.05513 2.37995,-7.48138 31.5,-18.87729 27.6404,-10.81685 35.90157,-11.67734 52.76086,-5.49556 10.88423,3.9909 12.71776,5.43707 13.40683,10.5744 0.45335,3.37997 0.10239,4.56071 -2.15189,7.23978 -3.53335,4.19914 -7.63258,4.21838 -17.47745,0.082 -11.53836,-4.8479 -16.16744,-4.15414 -43.53835,6.52515 -24.89587,9.7136 -27.93761,10.2395 -31.91111,5.51726 z m -230.98718,78.0667 c 9.46182,-3.06554 20.55217,-10.2428 24.03077,-15.55182 1.41023,-2.15228 1.36827,-2.8202 -0.48902,-7.78425 -4.08399,-10.91546 -6.563,-47.05331 -4.09996,-59.76741 l 1.04349,-5.38649 -3.78354,-3.31348 c -4.60245,-4.03065 -13.91507,-8.51357 -21.19479,-10.20279 -12.72196,-2.95205 -28.22648,1.22672 -41.45596,11.1732 -12.19441,9.16827 -17.5196,18.14292 -19.77898,33.33396 -3.38073,22.73042 12.38178,49.0682 34.16897,57.09336 8.7229,3.21302 22.35341,3.38826 31.55902,0.40572 z M 499.58872,320.073 c 23.8575,-12.87093 92.31314,-47.0949 114.91128,-57.44917 48.81853,-22.36823 111.70218,-48.76945 129.84699,-54.51526 4.18942,-1.32664 7.6252,-2.6599 7.63507,-2.9628 0.027,-0.82957 -8.53607,-4.82804 -16.98206,-7.92965 -23.66261,-8.68958 -57.17565,-13.10736 -99.5,-13.11635 -45.26488,-0.01 -68.30945,5.17151 -90.16167,20.27114 -22.41628,15.48939 -38.63541,39.12784 -52.02646,75.82559 -5.85089,16.03416 -13.47653,49 -11.33465,49 0.38512,0 8.3103,-4.10558 17.6115,-9.1235 z"
       id="path1" />
  </g>
</svg>
